HIERARCHY
ROOT Hips
{
	OFFSET 56.493401 0.401933 95.225502
	CHANNELS 6 Xposition Yposition Zposition Xrotation Yrotation Zrotation
	JOINT spine
	{
		OFFSET 0.000000 -0.458068 7.965683
		CHANNELS 3 Xrotation Yrotation Zrotation
		JOINT spine1
		{
			OFFSET 0.000000 -0.000002 10.243103
			CHANNELS 3 Xrotation Yrotation Zrotation
			JOINT spine2
			{
				OFFSET 0.000000 -0.000002 9.814751
				CHANNELS 3 Xrotation Yrotation Zrotation
				JOINT Neck
				{
					OFFSET 0.000000 -1.201384 25.198593
					CHANNELS 3 Xrotation Yrotation Zrotation
					JOINT Head
					{
						OFFSET 0.000000 -0.000001 7.613144
						CHANNELS 3 Xrotation Yrotation Zrotation
						End Site
						{
							OFFSET 0.000000 6.077327 18.428101
						}
					}
				}
				JOINT RightShoulder
				{
					OFFSET -4.132698 0.575449 10.599197
					CHANNELS 3 Xrotation Yrotation Zrotation
					JOINT RightArm
					{
						OFFSET 0.000000 -0.000002 13.901794
						CHANNELS 3 Xrotation Yrotation Zrotation
						JOINT RightArmRoll
						{
							OFFSET 0.000000 -0.000001 7.017883
							CHANNELS 3 Xrotation Yrotation Zrotation
							JOINT RightForeArm
							{
								OFFSET 0.000000 -0.000003 20.440598
								CHANNELS 3 Xrotation Yrotation Zrotation
								JOINT RightForeArmRoll
								{
									OFFSET 0.000000 -0.000001 7.875153
									CHANNELS 3 Xrotation Yrotation Zrotation
									JOINT RightHand
									{
										OFFSET 0.000000 -0.000003 15.803696
										CHANNELS 3 Xrotation Yrotation Zrotation
										End Site
										{
											OFFSET 0.000000 0.000000 0.100006
										}
									}
								}
							}
						}
					}
				}
				JOINT LeftShoulder
				{
					OFFSET 4.132698 0.575449 10.599197
					CHANNELS 3 Xrotation Yrotation Zrotation
					JOINT LeftArm
					{
						OFFSET 0.000000 -0.000002 13.901794
						CHANNELS 3 Xrotation Yrotation Zrotation
						JOINT LeftArmRoll
						{
							OFFSET 0.000000 -0.000001 7.017883
							CHANNELS 3 Xrotation Yrotation Zrotation
							JOINT LeftForeArm
							{
								OFFSET 0.000000 -0.000003 20.440598
								CHANNELS 3 Xrotation Yrotation Zrotation
								JOINT LeftForeArmRoll
								{
									OFFSET 0.000000 -0.000001 7.875153
									CHANNELS 3 Xrotation Yrotation Zrotation
									JOINT LeftHand
									{
										OFFSET 0.000000 -0.000003 15.803696
										CHANNELS 3 Xrotation Yrotation Zrotation
										End Site
										{
											OFFSET 0.000000 0.000000 0.100006
										}
									}
								}
							}
						}
					}
				}
			}
		}
	}
	JOINT RightUpLeg
	{
		OFFSET -7.060478 1.086100 -1.294701
		CHANNELS 3 Xrotation Yrotation Zrotation
		JOINT RightUpLegRoll
		{
			OFFSET 0.000000 -0.000003 18.530800
			CHANNELS 3 Xrotation Yrotation Zrotation
			JOINT RightLeg
			{
				OFFSET 0.000000 0.000004 -22.947601
				CHANNELS 3 Xrotation Yrotation Zrotation
				JOINT RightLegRoll
				{
					OFFSET 0.000000 -0.000004 23.022598
					CHANNELS 3 Xrotation Yrotation Zrotation
					JOINT RightFoot
					{
						OFFSET 0.000000 -0.000003 19.162498
						CHANNELS 3 Xrotation Yrotation Zrotation
						JOINT RightToeBase
						{
							OFFSET 0.000000 -0.000003 16.018799
							CHANNELS 3 Xrotation Yrotation Zrotation
							End Site
							{
								OFFSET 0.006790 0.894205 7.757812
							}
						}
					}
				}
			}
		}
	}
	JOINT LeftUpLeg
	{
		OFFSET 7.060478 1.086100 -1.294701
		CHANNELS 3 Xrotation Yrotation Zrotation
		JOINT LeftUpLegRoll
		{
			OFFSET 0.000000 -0.000003 18.530899
			CHANNELS 3 Xrotation Yrotation Zrotation
			JOINT LeftLeg
			{
				OFFSET 0.000000 -0.000004 22.947495
				CHANNELS 3 Xrotation Yrotation Zrotation
				JOINT LeftLegRoll
				{
					OFFSET 0.000000 -0.000004 23.235504
					CHANNELS 3 Xrotation Yrotation Zrotation
					JOINT LeftFoot
					{
						OFFSET 0.000000 -0.000003 18.949600
						CHANNELS 3 Xrotation Yrotation Zrotation
						JOINT LeftToeBase
						{
							OFFSET 0.000000 -0.000003 16.018799
							CHANNELS 3 Xrotation Yrotation Zrotation
							End Site
							{
								OFFSET -0.030430 0.894206 7.757812
							}
						}
					}
				}
			}
		}
	}
}
MOTION
Frames: 8
Frame Time: 0.041667
42.424702 2.441393 96.613411 -3.296715 -1.157213 4.941556 0.140884 0.018251 -0.267648 4.282941 0.032241 -0.528654 5.927992 0.025907 -0.529006 -1.395506 18.449099 -3.458655 12.736126 -12.198351 -4.129344 -9.056342 -61.620273 -10.864965 -41.958467 -106.709439 -85.443686 -0.000002 -0.000002 0.000005 83.527025 -2.990950 -3.560871 -0.000006 -0.000001 -3.009710 -4.999801 -7.999904 -0.000027 -10.016570 63.504244 12.090009 -56.489868 112.785999 92.471609 -0.000004 -0.000006 -0.000009 79.732732 7.908749 0.184540 0.000000 -0.000004 3.000012 -4.999740 7.999162 -0.000048 -2.239389 -178.695999 1.689062 -179.999991 0.000005 -1.147003 169.833268 -1.344565 -0.726103 -0.000004 -0.000007 0.150288 69.220839 6.929309 2.007363 25.456935 -7.347112 -0.000000 -1.915429 174.473071 -1.025358 -0.000004 -0.000005 -1.171250 -11.784703 0.908330 0.458947 -0.000007 0.000001 -0.203283 69.614961 -6.928608 -2.010891 25.456959 7.355612 -0.000001 
42.421402 2.458205 96.612892 -3.237365 -1.178178 5.005284 0.137878 0.017352 -0.269263 4.277041 0.030506 -0.532357 5.922101 0.024127 -0.532688 -1.537755 18.289850 -3.338459 12.836453 -11.932539 -4.049279 -9.103560 -61.606346 -10.919049 -41.985992 -106.669626 -85.303756 -0.000001 -0.000002 0.000003 83.484426 -2.984021 -3.559588 -0.000005 0.000000 -3.009710 -4.999802 -7.999909 -0.000024 -9.978188 63.500289 12.045577 -56.568347 112.844656 92.567921 -0.000003 -0.000003 -0.000010 79.737083 7.910621 0.183601 -0.000001 0.000001 3.000009 -4.999740 7.999158 -0.000047 -2.338677 -178.662108 1.705345 -179.999991 0.000005 -1.146005 169.765663 -1.363960 -0.730230 -0.000005 -0.000007 0.151173 69.223701 6.929305 2.007784 25.456936 -7.347113 -0.000001 -2.062411 174.494558 -0.994936 -0.000005 -0.000005 -1.171220 -11.922995 0.900344 0.462760 -0.000006 0.000001 -0.203762 69.594525 -6.928607 -2.011270 25.456955 7.355613 0.000000 
42.404297 2.468364 96.607597 -3.177246 -1.198876 5.067635 0.134747 0.016478 -0.270989 4.270911 0.028822 -0.536299 5.915971 0.022396 -0.536609 -1.682360 18.134695 -3.219894 12.938327 -11.671814 -3.971004 -9.150496 -61.590801 -10.972728 -42.013726 -106.634997 -85.163266 -0.000000 -0.000002 0.000005 83.437044 -2.979688 -3.555382 -0.000006 0.000003 -3.009710 -4.999800 -7.999904 -0.000027 -9.942321 63.497653 12.004145 -56.643141 112.903164 92.658456 -0.000005 -0.000002 -0.000010 79.741393 7.912268 0.182654 -0.000000 0.000001 3.000012 -4.999741 7.999161 -0.000049 -2.439610 -178.628257 1.721562 -179.999991 0.000005 -1.143997 169.696952 -1.383341 -0.733447 -0.000004 -0.000007 0.152040 69.225818 6.929302 2.008150 25.456936 -7.347113 -0.000001 -2.209498 174.517057 -0.962429 -0.000004 -0.000004 -1.171170 -12.058781 0.890734 0.466355 -0.000007 0.000001 -0.204147 69.573878 -6.928618 -2.011663 25.456953 7.355613 0.000000 
42.416096 2.480036 96.610710 -3.116588 -1.219335 5.129023 0.131535 0.015622 -0.272793 4.264611 0.027175 -0.540406 5.909671 0.020700 -0.540697 -1.828561 17.982327 -3.102685 13.041345 -11.414441 -3.894275 -9.197240 -61.574251 -11.026120 -42.036188 -106.605531 -85.016649 -0.000001 -0.000002 0.000008 83.386474 -2.977097 -3.549047 -0.000006 -0.000002 -3.009711 -4.999800 -7.999904 -0.000025 -9.908194 63.495802 11.964784 -56.718512 112.960592 92.748416 -0.000004 -0.000006 -0.000008 79.745505 7.913837 0.181910 -0.000001 -0.000003 3.000012 -4.999743 7.999159 -0.000047 -2.541693 -178.594379 1.737691 -179.999991 0.000005 -1.143000 169.627557 -1.403689 -0.737904 -0.000005 -0.000007 0.152894 69.227410 6.929346 2.008558 25.456936 -7.347113 -0.000001 -2.356653 174.541591 -0.928552 -0.000005 -0.000005 -1.171110 -12.192762 0.879989 0.469774 -0.000006 0.000000 -0.204471 69.553121 -6.928615 -2.011957 25.456955 7.355612 0.000000 
42.434898 2.494004 96.607407 -3.055625 -1.239617 5.189892 0.128265 0.014774 -0.274640 4.258210 0.025549 -0.544610 5.903271 0.019024 -0.544880 -1.975568 17.831368 -2.986620 13.144842 -11.159078 -3.818850 -9.243823 -61.556977 -11.079307 -42.059912 -106.577657 -84.871063 0.000000 -0.000001 0.000003 83.333915 -2.975559 -3.541730 -0.000005 0.000001 -3.009709 -4.999800 -7.999905 -0.000022 -9.875071 63.494477 11.926612 -56.793105 113.017795 92.836922 -0.000003 -0.000002 -0.000011 79.749576 7.915341 0.181060 -0.000001 0.000000 3.000011 -4.999743 7.999157 -0.000048 -2.644435 -178.560543 1.753712 -179.999991 0.000005 -1.142002 169.557643 -1.423042 -0.742230 -0.000004 -0.000007 0.153740 69.228701 6.929406 2.008790 25.456938 -7.347112 -0.000001 -2.503866 174.565169 -0.893870 -0.000004 -0.000005 -1.171050 -12.325740 0.868587 0.473072 -0.000007 0.000001 -0.204757 69.532364 -6.928600 -2.012352 25.456957 7.355616 -0.000001 
42.387596 2.602775 96.582901 -2.994586 -1.259749 5.250674 0.124989 0.013931 -0.276498 4.251780 0.023929 -0.548839 5.896841 0.017353 -0.549088 -2.122622 17.680319 -2.871458 13.248633 -10.903987 -3.744454 -9.290329 -61.539601 -11.132396 -42.081205 -106.550466 -84.722937 -0.000001 -0.000002 0.000002 83.280920 -2.974305 -3.534037 -0.000005 0.000001 -3.009711 -4.999798 -7.999910 -0.000025 -9.842204 63.493329 11.888750 -56.869022 113.074328 92.926732 -0.000004 -0.000002 -0.000007 79.753633 7.916809 0.180408 -0.000000 -0.000003 3.000010 -4.999742 7.999159 -0.000048 -2.747338 -178.526692 1.769639 -179.999991 0.000005 -1.141005 169.487729 -1.443365 -0.746798 -0.000004 -0.000007 0.154585 69.229889 6.929462 2.009224 25.456938 -7.347113 -0.000000 -2.651071 174.589771 -0.859123 -0.000005 -0.000005 -1.170990 -12.458416 0.857014 0.476298 -0.000007 0.000001 -0.205035 69.511511 -6.928599 -2.012655 25.456953 7.355613 -0.000000 
42.381096 2.603753 96.580795 -2.933712 -1.279782 5.311778 0.121737 0.013082 -0.278335 4.245410 0.022300 -0.553019 5.890471 0.015674 -0.553249 -2.268938 17.527993 -2.756973 13.352233 -10.647526 -3.670852 -9.336834 -61.522499 -11.185501 -42.102205 -106.521868 -84.574742 0.000001 -0.000003 0.000005 83.228860 -2.972547 -3.526991 -0.000006 -0.000000 -3.009710 -4.999802 -7.999906 -0.000027 -9.808816 63.491799 11.850277 -56.942959 113.131599 93.014841 -0.000003 -0.000001 -0.000009 79.757724 7.918330 0.179658 -0.000001 -0.000001 3.000010 -4.999740 7.999158 -0.000049 -2.849926 -178.492869 1.785431 -179.999991 0.000005 -1.139994 169.417911 -1.462711 -0.751233 -0.000004 -0.000007 0.155433 69.231269 6.929494 2.009545 25.456936 -7.347113 -0.000001 -2.798245 174.614387 -0.824953 -0.000005 -0.000005 -1.170920 -12.591695 0.845755 0.479514 -0.000006 0.000001 -0.205330 69.490666 -6.928590 -2.013158 25.456955 7.355613 -0.000001 
42.376003 2.634263 96.578499 -2.873240 -1.299766 5.373650 0.118544 0.012221 -0.280116 4.239150 0.020646 -0.557081 5.884211 0.013972 -0.557290 -2.413742 17.372907 -2.642942 13.455087 -10.388078 -3.597853 -9.383423 -61.506181 -11.238749 -42.121934 -106.490360 -84.425790 0.000000 -0.000003 0.000006 83.179178 -2.969528 -3.521202 -0.000005 -0.000002 -3.009710 -4.999800 -7.999906 -0.000024 -9.774183 63.489648 11.810319 -57.015171 113.189779 93.102111 -0.000004 -0.000004 -0.000007 79.761870 7.919928 0.178918 -0.000001 -0.000003 3.000011 -4.999741 7.999156 -0.000047 -2.951689 -178.458049 1.801053 -179.999991 0.000005 -1.138000 169.348694 -1.482034 -0.754700 -0.000004 -0.000007 0.156290 69.232976 6.929540 2.009947 25.456936 -7.347114 -0.000000 -2.945347 174.639058 -0.792036 -0.000005 -0.000005 -1.170871 -12.726176 0.835286 0.482780 -0.000006 0.000001 -0.205670 69.470018 -6.928579 -2.013445 25.456957 7.355612 -0.000001 
